<svg id="visual" viewBox="0 0 960 50" width="960" height="50" xmlns="http://www.w3.org/2000/svg" xmlns:xlink="http://www.w3.org/1999/xlink" version="1.1"><path d="M0 10L8 9.7C16 9.3 32 8.7 48 8.7C64 8.7 80 9.3 96 9.3C112 9.3 128 8.7 144 7.8C160 7 176 6 192 5.8C208 5.7 224 6.3 240 7C256 7.7 272 8.3 288 9C304 9.7 320 10.3 336 10.7C352 11 368 11 384 10.5C400 10 416 9 432 8.7C448 8.3 464 8.7 480 8.7C496 8.7 512 8.3 528 8.5C544 8.7 560 9.3 576 9.8C592 10.3 608 10.7 624 9.8C640 9 656 7 672 6C688 5 704 5 720 5.2C736 5.3 752 5.7 768 5.8C784 6 800 6 816 6.3C832 6.7 848 7.3 864 7.7C880 8 896 8 912 7.7C928 7.3 944 6.7 952 6.3L960 6L960 0L952 0C944 0 928 0 912 0C896 0 880 0 864 0C848 0 832 0 816 0C800 0 784 0 768 0C752 0 736 0 720 0C704 0 688 0 672 0C656 0 640 0 624 0C608 0 592 0 576 0C560 0 544 0 528 0C512 0 496 0 480 0C464 0 448 0 432 0C416 0 400 0 384 0C368 0 352 0 336 0C320 0 304 0 288 0C272 0 256 0 240 0C224 0 208 0 192 0C176 0 160 0 144 0C128 0 112 0 96 0C80 0 64 0 48 0C32 0 16 0 8 0L0 0Z" fill="#502e5b"></path><path d="M0 22L8 22.3C16 22.7 32 23.3 48 22.8C64 22.3 80 20.7 96 20.2C112 19.7 128 20.3 144 20.5C160 20.7 176 20.3 192 19.5C208 18.7 224 17.3 240 17.7C256 18 272 20 288 20.5C304 21 320 20 336 20.3C352 20.7 368 22.3 384 23.5C400 24.7 416 25.3 432 24.2C448 23 464 20 480 18.3C496 16.7 512 16.3 528 16C544 15.7 560 15.3 576 17.2C592 19 608 23 624 23.2C640 23.3 656 19.7 672 17C688 14.3 704 12.7 720 13.3C736 14 752 17 768 17.5C784 18 800 16 816 15.7C832 15.3 848 16.7 864 17.7C880 18.7 896 19.3 912 18.7C928 18 944 16 952 15L960 14L960 4L952 4.3C944 4.7 928 5.3 912 5.7C896 6 880 6 864 5.7C848 5.3 832 4.7 816 4.3C800 4 784 4 768 3.8C752 3.7 736 3.3 720 3.2C704 3 688 3 672 4C656 5 640 7 624 7.8C608 8.7 592 8.3 576 7.8C560 7.3 544 6.7 528 6.5C512 6.3 496 6.7 480 6.7C464 6.7 448 6.3 432 6.7C416 7 400 8 384 8.5C368 9 352 9 336 8.7C320 8.3 304 7.7 288 7C272 6.3 256 5.7 240 5C224 4.3 208 3.7 192 3.8C176 4 160 5 144 5.8C128 6.7 112 7.3 96 7.3C80 7.3 64 6.7 48 6.7C32 6.7 16 7.3 8 7.7L0 8Z" fill="#42224c"></path><path d="M0 27L8 27.3C16 27.7 32 28.3 48 27.8C64 27.3 80 25.7 96 24.7C112 23.7 128 23.3 144 23.2C160 23 176 23 192 22.7C208 22.3 224 21.7 240 21.8C256 22 272 23 288 23.2C304 23.3 320 22.7 336 23.5C352 24.3 368 26.7 384 28.2C400 29.7 416 30.3 432 29C448 27.7 464 24.3 480 22.8C496 21.3 512 21.7 528 21.5C544 21.3 560 20.7 576 21.8C592 23 608 26 624 26.3C640 26.7 656 24.3 672 22.3C688 20.3 704 18.7 720 19C736 19.3 752 21.7 768 22C784 22.3 800 20.7 816 20.7C832 20.7 848 22.3 864 23.5C880 24.7 896 25.3 912 24.5C928 23.7 944 21.3 952 20.2L960 19L960 12L952 13C944 14 928 16 912 16.7C896 17.3 880 16.7 864 15.7C848 14.7 832 13.3 816 13.7C800 14 784 16 768 15.5C752 15 736 12 720 11.3C704 10.7 688 12.3 672 15C656 17.7 640 21.3 624 21.2C608 21 592 17 576 15.2C560 13.3 544 13.7 528 14C512 14.3 496 14.7 480 16.3C464 18 448 21 432 22.2C416 23.3 400 22.7 384 21.5C368 20.3 352 18.7 336 18.3C320 18 304 19 288 18.5C272 18 256 16 240 15.7C224 15.3 208 16.7 192 17.5C176 18.3 160 18.7 144 18.5C128 18.3 112 17.7 96 18.2C80 18.7 64 20.3 48 20.8C32 21.3 16 20.7 8 20.3L0 20Z" fill="#34173d"></path><path d="M0 31L8 31.7C16 32.3 32 33.7 48 33.3C64 33 80 31 96 29.7C112 28.3 128 27.7 144 27.5C160 27.3 176 27.7 192 27.7C208 27.7 224 27.3 240 27.3C256 27.3 272 27.7 288 27.8C304 28 320 28 336 28.8C352 29.7 368 31.3 384 32.2C400 33 416 33 432 31.7C448 30.3 464 27.7 480 26.5C496 25.3 512 25.7 528 25.7C544 25.7 560 25.3 576 26.3C592 27.3 608 29.7 624 30C640 30.3 656 28.7 672 27C688 25.3 704 23.7 720 23.5C736 23.3 752 24.7 768 25C784 25.3 800 24.7 816 25.2C832 25.7 848 27.3 864 28.3C880 29.3 896 29.7 912 29C928 28.3 944 26.7 952 25.8L960 25L960 17L952 18.2C944 19.3 928 21.7 912 22.5C896 23.3 880 22.7 864 21.5C848 20.3 832 18.7 816 18.7C800 18.7 784 20.3 768 20C752 19.7 736 17.3 720 17C704 16.7 688 18.3 672 20.3C656 22.3 640 24.7 624 24.3C608 24 592 21 576 19.8C560 18.7 544 19.3 528 19.5C512 19.7 496 19.3 480 20.8C464 22.3 448 25.7 432 27C416 28.3 400 27.7 384 26.2C368 24.7 352 22.3 336 21.5C320 20.7 304 21.3 288 21.2C272 21 256 20 240 19.8C224 19.7 208 20.3 192 20.7C176 21 160 21 144 21.2C128 21.3 112 21.7 96 22.7C80 23.7 64 25.3 48 25.8C32 26.3 16 25.7 8 25.3L0 25Z" fill="#290f32"></path><path d="M0 36L8 36.3C16 36.7 32 37.3 48 36.3C64 35.3 80 32.7 96 31.3C112 30 128 30 144 30.2C160 30.3 176 30.7 192 30.8C208 31 224 31 240 31.2C256 31.3 272 31.7 288 31.7C304 31.7 320 31.3 336 32C352 32.7 368 34.3 384 35.3C400 36.3 416 36.7 432 35.3C448 34 464 31 480 29.7C496 28.3 512 28.7 528 28.7C544 28.7 560 28.3 576 29.3C592 30.3 608 32.7 624 33C640 33.3 656 31.7 672 29.8C688 28 704 26 720 25.8C736 25.7 752 27.3 768 28.2C784 29 800 29 816 29.5C832 30 848 31 864 31.8C880 32.7 896 33.3 912 32.7C928 32 944 30 952 29L960 28L960 23L952 23.8C944 24.7 928 26.3 912 27C896 27.7 880 27.3 864 26.3C848 25.3 832 23.7 816 23.2C800 22.7 784 23.3 768 23C752 22.7 736 21.3 720 21.5C704 21.7 688 23.3 672 25C656 26.7 640 28.3 624 28C608 27.7 592 25.3 576 24.3C560 23.3 544 23.7 528 23.7C512 23.7 496 23.3 480 24.5C464 25.7 448 28.3 432 29.7C416 31 400 31 384 30.2C368 29.3 352 27.7 336 26.8C320 26 304 26 288 25.8C272 25.7 256 25.3 240 25.3C224 25.3 208 25.7 192 25.7C176 25.7 160 25.3 144 25.5C128 25.7 112 26.3 96 27.7C80 29 64 31 48 31.3C32 31.7 16 30.3 8 29.7L0 29Z" fill="#290f32"></path><path d="M0 41L8 41C16 41 32 41 48 40.3C64 39.7 80 38.3 96 37.2C112 36 128 35 144 35.3C160 35.7 176 37.3 192 37.3C208 37.3 224 35.7 240 35.7C256 35.7 272 37.3 288 37.7C304 38 320 37 336 37.5C352 38 368 40 384 40.8C400 41.7 416 41.3 432 39.8C448 38.3 464 35.7 480 34.2C496 32.7 512 32.3 528 32.8C544 33.3 560 34.7 576 36C592 37.3 608 38.7 624 38.7C640 38.7 656 37.3 672 35.8C688 34.3 704 32.7 720 32C736 31.3 752 31.7 768 32.2C784 32.7 800 33.3 816 34.5C832 35.7 848 37.3 864 38.3C880 39.3 896 39.7 912 39C928 38.3 944 36.7 952 35.8L960 35L960 26L952 27C944 28 928 30 912 30.7C896 31.3 880 30.7 864 29.8C848 29 832 28 816 27.5C800 27 784 27 768 26.2C752 25.3 736 23.7 720 23.8C704 24 688 26 672 27.8C656 29.7 640 31.3 624 31C608 30.7 592 28.3 576 27.3C560 26.3 544 26.7 528 26.7C512 26.7 496 26.3 480 27.7C464 29 448 32 432 33.3C416 34.7 400 34.3 384 33.3C368 32.3 352 30.7 336 30C320 29.3 304 29.7 288 29.7C272 29.7 256 29.3 240 29.2C224 29 208 29 192 28.8C176 28.7 160 28.3 144 28.2C128 28 112 28 96 29.3C80 30.7 64 33.3 48 34.3C32 35.3 16 34.7 8 34.3L0 34Z" fill="#34173d"></path><path d="M0 50L8 49.5C16 49 32 48 48 47.8C64 47.7 80 48.3 96 48.5C112 48.7 128 48.3 144 48C160 47.7 176 47.3 192 47.3C208 47.3 224 47.7 240 47.8C256 48 272 48 288 47.7C304 47.3 320 46.7 336 46.5C352 46.3 368 46.7 384 47C400 47.3 416 47.7 432 47.8C448 48 464 48 480 48.3C496 48.7 512 49.3 528 49.5C544 49.7 560 49.3 576 48.8C592 48.3 608 47.7 624 47.3C640 47 656 47 672 47C688 47 704 47 720 46.8C736 46.7 752 46.3 768 46.3C784 46.3 800 46.7 816 47C832 47.3 848 47.7 864 47.7C880 47.7 896 47.3 912 47.3C928 47.3 944 47.7 952 47.8L960 48L960 33L952 33.8C944 34.7 928 36.3 912 37C896 37.7 880 37.3 864 36.3C848 35.3 832 33.7 816 32.5C800 31.3 784 30.7 768 30.2C752 29.7 736 29.3 720 30C704 30.7 688 32.3 672 33.8C656 35.3 640 36.7 624 36.7C608 36.7 592 35.3 576 34C560 32.7 544 31.3 528 30.8C512 30.3 496 30.7 480 32.2C464 33.7 448 36.3 432 37.8C416 39.3 400 39.7 384 38.8C368 38 352 36 336 35.5C320 35 304 36 288 35.7C272 35.3 256 33.7 240 33.7C224 33.7 208 35.3 192 35.3C176 35.3 160 33.7 144 33.3C128 33 112 34 96 35.2C80 36.3 64 37.7 48 38.3C32 39 16 39 8 39L0 39Z" fill="#42224c"></path><path d="M0 51L8 51C16 51 32 51 48 51C64 51 80 51 96 51C112 51 128 51 144 51C160 51 176 51 192 51C208 51 224 51 240 51C256 51 272 51 288 51C304 51 320 51 336 51C352 51 368 51 384 51C400 51 416 51 432 51C448 51 464 51 480 51C496 51 512 51 528 51C544 51 560 51 576 51C592 51 608 51 624 51C640 51 656 51 672 51C688 51 704 51 720 51C736 51 752 51 768 51C784 51 800 51 816 51C832 51 848 51 864 51C880 51 896 51 912 51C928 51 944 51 952 51L960 51L960 46L952 45.8C944 45.7 928 45.3 912 45.3C896 45.3 880 45.7 864 45.7C848 45.7 832 45.3 816 45C800 44.7 784 44.3 768 44.3C752 44.3 736 44.7 720 44.8C704 45 688 45 672 45C656 45 640 45 624 45.3C608 45.7 592 46.3 576 46.8C560 47.3 544 47.7 528 47.5C512 47.3 496 46.7 480 46.3C464 46 448 46 432 45.8C416 45.7 400 45.3 384 45C368 44.7 352 44.3 336 44.5C320 44.7 304 45.3 288 45.7C272 46 256 46 240 45.8C224 45.7 208 45.3 192 45.3C176 45.3 160 45.7 144 46C128 46.3 112 46.7 96 46.5C80 46.3 64 45.7 48 45.8C32 46 16 47 8 47.5L0 48Z" fill="#502e5b"></path></svg>