<svg id="visual" viewBox="0 0 960 50" width="960" height="50" xmlns="http://www.w3.org/2000/svg" xmlns:xlink="http://www.w3.org/1999/xlink" version="1.1"><path d="M0 17L8.8 16.7C17.7 16.3 35.3 15.7 53.2 14.3C71 13 89 11 106.8 10.8C124.7 10.7 142.3 12.3 160 12.8C177.7 13.3 195.3 12.7 213.2 11.3C231 10 249 8 266.8 7.3C284.7 6.7 302.3 7.3 320 9C337.7 10.7 355.3 13.3 373.2 14C391 14.7 409 13.3 426.8 11.5C444.7 9.7 462.3 7.3 480 7.7C497.7 8 515.3 11 533.2 14.3C551 17.7 569 21.3 586.8 21.5C604.7 21.7 622.3 18.3 640 16.3C657.7 14.3 675.3 13.7 693.2 13C711 12.3 729 11.7 746.8 11.2C764.7 10.7 782.3 10.3 800 11.5C817.7 12.7 835.3 15.3 853.2 15.7C871 16 889 14 906.8 11.7C924.7 9.3 942.3 6.7 951.2 5.3L960 4L960 0L951.2 0C942.3 0 924.7 0 906.8 0C889 0 871 0 853.2 0C835.3 0 817.7 0 800 0C782.3 0 764.7 0 746.8 0C729 0 711 0 693.2 0C675.3 0 657.7 0 640 0C622.3 0 604.7 0 586.8 0C569 0 551 0 533.2 0C515.3 0 497.7 0 480 0C462.3 0 444.7 0 426.8 0C409 0 391 0 373.2 0C355.3 0 337.7 0 320 0C302.3 0 284.7 0 266.8 0C249 0 231 0 213.2 0C195.3 0 177.7 0 160 0C142.3 0 124.7 0 106.8 0C89 0 71 0 53.2 0C35.3 0 17.7 0 8.8 0L0 0Z" fill="#502e5b"></path><path d="M0 20L8.8 20.3C17.7 20.7 35.3 21.3 53.2 20.5C71 19.7 89 17.3 106.8 16.7C124.7 16 142.3 17 160 17.7C177.7 18.3 195.3 18.7 213.2 17.2C231 15.7 249 12.3 266.8 11.5C284.7 10.7 302.3 12.3 320 14C337.7 15.7 355.3 17.3 373.2 17.7C391 18 409 17 426.8 16.2C444.7 15.3 462.3 14.7 480 15.7C497.7 16.7 515.3 19.3 533.2 21.5C551 23.7 569 25.3 586.8 25.2C604.7 25 622.3 23 640 21.8C657.7 20.7 675.3 20.3 693.2 20.2C711 20 729 20 746.8 18.8C764.7 17.7 782.3 15.3 800 15.7C817.7 16 835.3 19 853.2 19.2C871 19.3 889 16.7 906.8 14.7C924.7 12.7 942.3 11.3 951.2 10.7L960 10L960 2L951.2 3.3C942.3 4.7 924.7 7.3 906.8 9.7C889 12 871 14 853.2 13.7C835.3 13.3 817.7 10.7 800 9.5C782.3 8.3 764.7 8.7 746.8 9.2C729 9.7 711 10.3 693.2 11C675.3 11.7 657.7 12.3 640 14.3C622.3 16.3 604.7 19.7 586.8 19.5C569 19.3 551 15.7 533.2 12.3C515.3 9 497.7 6 480 5.7C462.3 5.3 444.7 7.7 426.8 9.5C409 11.3 391 12.7 373.2 12C355.3 11.3 337.7 8.7 320 7C302.3 5.3 284.7 4.7 266.8 5.3C249 6 231 8 213.2 9.3C195.3 10.7 177.7 11.3 160 10.8C142.3 10.3 124.7 8.7 106.8 8.8C89 9 71 11 53.2 12.3C35.3 13.7 17.7 14.3 8.8 14.7L0 15Z" fill="#42224c"></path><path d="M0 24L8.8 23.8C17.7 23.7 35.3 23.3 53.2 23.2C71 23 89 23 106.8 23.3C124.7 23.7 142.3 24.3 160 24.3C177.7 24.3 195.3 23.7 213.2 21.7C231 19.7 249 16.3 266.8 15.7C284.7 15 302.3 17 320 18.5C337.7 20 355.3 21 373.2 21C391 21 409 20 426.8 19.5C444.7 19 462.3 19 480 20C497.7 21 515.3 23 533.2 24.5C551 26 569 27 586.8 27.7C604.7 28.3 622.3 28.7 640 28.5C657.7 28.3 675.3 27.7 693.2 26.3C711 25 729 23 746.8 21C764.7 19 782.3 17 800 18.3C817.7 19.7 835.3 24.3 853.2 25.2C871 26 889 23 906.8 20.8C924.7 18.7 942.3 17.3 951.2 16.7L960 16L960 8L951.2 8.7C942.3 9.3 924.7 10.7 906.8 12.7C889 14.7 871 17.3 853.2 17.2C835.3 17 817.7 14 800 13.7C782.3 13.3 764.7 15.7 746.8 16.8C729 18 711 18 693.2 18.2C675.3 18.3 657.7 18.7 640 19.8C622.3 21 604.7 23 586.8 23.2C569 23.3 551 21.7 533.2 19.5C515.3 17.3 497.7 14.7 480 13.7C462.3 12.7 444.7 13.3 426.8 14.2C409 15 391 16 373.2 15.7C355.3 15.3 337.7 13.7 320 12C302.3 10.3 284.7 8.7 266.8 9.5C249 10.3 231 13.7 213.2 15.2C195.3 16.7 177.7 16.3 160 15.7C142.3 15 124.7 14 106.8 14.7C89 15.3 71 17.7 53.2 18.5C35.3 19.3 17.7 18.7 8.8 18.3L0 18Z" fill="#34173d"></path><path d="M0 29L8.8 29.2C17.7 29.3 35.3 29.7 53.2 28.8C71 28 89 26 106.8 26.7C124.7 27.3 142.3 30.7 160 32.8C177.7 35 195.3 36 213.2 33.7C231 31.3 249 25.7 266.8 24.2C284.7 22.7 302.3 25.3 320 26.5C337.7 27.7 355.3 27.3 373.2 26.3C391 25.3 409 23.7 426.8 23C444.7 22.3 462.3 22.7 480 24.3C497.7 26 515.3 29 533.2 30.7C551 32.3 569 32.7 586.8 33.5C604.7 34.3 622.3 35.7 640 36C657.7 36.3 675.3 35.7 693.2 33.5C711 31.3 729 27.7 746.8 26.5C764.7 25.3 782.3 26.7 800 28.8C817.7 31 835.3 34 853.2 33.8C871 33.7 889 30.3 906.8 27.5C924.7 24.7 942.3 22.3 951.2 21.2L960 20L960 14L951.2 14.7C942.3 15.3 924.7 16.7 906.8 18.8C889 21 871 24 853.2 23.2C835.3 22.3 817.7 17.7 800 16.3C782.3 15 764.7 17 746.8 19C729 21 711 23 693.2 24.3C675.3 25.7 657.7 26.3 640 26.5C622.3 26.7 604.7 26.3 586.8 25.7C569 25 551 24 533.2 22.5C515.3 21 497.7 19 480 18C462.3 17 444.7 17 426.8 17.5C409 18 391 19 373.2 19C355.3 19 337.7 18 320 16.5C302.3 15 284.7 13 266.8 13.7C249 14.3 231 17.7 213.2 19.7C195.3 21.7 177.7 22.3 160 22.3C142.3 22.3 124.7 21.7 106.8 21.3C89 21 71 21 53.2 21.2C35.3 21.3 17.7 21.7 8.8 21.8L0 22Z" fill="#290f32"></path><path d="M0 33L8.8 32.8C17.7 32.7 35.3 32.3 53.2 31C71 29.7 89 27.3 106.8 28C124.7 28.7 142.3 32.3 160 34.7C177.7 37 195.3 38 213.2 35.7C231 33.3 249 27.7 266.8 26.7C284.7 25.7 302.3 29.3 320 31C337.7 32.7 355.3 32.3 373.2 31.2C391 30 409 28 426.8 27.3C444.7 26.7 462.3 27.3 480 28.5C497.7 29.7 515.3 31.3 533.2 32.5C551 33.7 569 34.3 586.8 35.5C604.7 36.7 622.3 38.3 640 38.7C657.7 39 675.3 38 693.2 36.2C711 34.3 729 31.7 746.8 30.7C764.7 29.7 782.3 30.3 800 32.7C817.7 35 835.3 39 853.2 39.3C871 39.7 889 36.3 906.8 32.7C924.7 29 942.3 25 951.2 23L960 21L960 18L951.2 19.2C942.3 20.3 924.7 22.7 906.8 25.5C889 28.3 871 31.7 853.2 31.8C835.3 32 817.7 29 800 26.8C782.3 24.7 764.7 23.3 746.8 24.5C729 25.7 711 29.3 693.2 31.5C675.3 33.7 657.7 34.3 640 34C622.3 33.7 604.7 32.3 586.8 31.5C569 30.7 551 30.3 533.2 28.7C515.3 27 497.7 24 480 22.3C462.3 20.7 444.7 20.3 426.8 21C409 21.7 391 23.3 373.2 24.3C355.3 25.3 337.7 25.7 320 24.5C302.3 23.3 284.7 20.7 266.8 22.2C249 23.7 231 29.3 213.2 31.7C195.3 34 177.7 33 160 30.8C142.3 28.7 124.7 25.3 106.8 24.7C89 24 71 26 53.2 26.8C35.3 27.7 17.7 27.3 8.8 27.2L0 27Z" fill="#290f32"></path><path d="M0 41L8.8 41.5C17.7 42 35.3 43 53.2 42.7C71 42.3 89 40.7 106.8 40.8C124.7 41 142.3 43 160 44.3C177.7 45.7 195.3 46.3 213.2 45.7C231 45 249 43 266.8 42.3C284.7 41.7 302.3 42.3 320 42.3C337.7 42.3 355.3 41.7 373.2 41.5C391 41.3 409 41.7 426.8 42C444.7 42.3 462.3 42.7 480 42.5C497.7 42.3 515.3 41.7 533.2 41.3C551 41 569 41 586.8 41.8C604.7 42.7 622.3 44.3 640 45C657.7 45.7 675.3 45.3 693.2 45.3C711 45.3 729 45.7 746.8 45C764.7 44.3 782.3 42.7 800 43.2C817.7 43.7 835.3 46.3 853.2 46.8C871 47.3 889 45.7 906.8 44.3C924.7 43 942.3 42 951.2 41.5L960 41L960 19L951.2 21C942.3 23 924.7 27 906.8 30.7C889 34.3 871 37.7 853.2 37.3C835.3 37 817.7 33 800 30.7C782.3 28.3 764.7 27.7 746.8 28.7C729 29.7 711 32.3 693.2 34.2C675.3 36 657.7 37 640 36.7C622.3 36.3 604.7 34.7 586.8 33.5C569 32.3 551 31.7 533.2 30.5C515.3 29.3 497.7 27.7 480 26.5C462.3 25.3 444.7 24.7 426.8 25.3C409 26 391 28 373.2 29.2C355.3 30.3 337.7 30.7 320 29C302.3 27.3 284.7 23.7 266.8 24.7C249 25.7 231 31.3 213.2 33.7C195.3 36 177.7 35 160 32.7C142.3 30.3 124.7 26.7 106.8 26C89 25.3 71 27.7 53.2 29C35.3 30.3 17.7 30.7 8.8 30.8L0 31Z" fill="#34173d"></path><path d="M0 49L8.8 48.5C17.7 48 35.3 47 53.2 46.5C71 46 89 46 106.8 46.3C124.7 46.7 142.3 47.3 160 47.5C177.7 47.7 195.3 47.3 213.2 47C231 46.7 249 46.3 266.8 46.2C284.7 46 302.3 46 320 46C337.7 46 355.3 46 373.2 46.3C391 46.7 409 47.3 426.8 47.7C444.7 48 462.3 48 480 47.8C497.7 47.7 515.3 47.3 533.2 47.2C551 47 569 47 586.8 47C604.7 47 622.3 47 640 47.2C657.7 47.3 675.3 47.7 693.2 48C711 48.3 729 48.7 746.8 48.5C764.7 48.3 782.3 47.7 800 47.8C817.7 48 835.3 49 853.2 48.7C871 48.3 889 46.7 906.8 46.2C924.7 45.7 942.3 46.3 951.2 46.7L960 47L960 39L951.2 39.5C942.3 40 924.7 41 906.8 42.3C889 43.7 871 45.3 853.2 44.8C835.3 44.3 817.7 41.7 800 41.2C782.3 40.7 764.7 42.3 746.8 43C729 43.7 711 43.3 693.2 43.3C675.3 43.3 657.7 43.7 640 43C622.3 42.3 604.7 40.7 586.8 39.8C569 39 551 39 533.2 39.3C515.3 39.7 497.7 40.3 480 40.5C462.3 40.7 444.7 40.3 426.8 40C409 39.7 391 39.3 373.2 39.5C355.3 39.7 337.7 40.3 320 40.3C302.3 40.3 284.7 39.7 266.8 40.3C249 41 231 43 213.2 43.7C195.3 44.3 177.7 43.7 160 42.3C142.3 41 124.7 39 106.8 38.8C89 38.7 71 40.3 53.2 40.7C35.3 41 17.7 40 8.8 39.5L0 39Z" fill="#42224c"></path><path d="M0 51L8.8 51C17.7 51 35.3 51 53.2 51C71 51 89 51 106.8 51C124.7 51 142.3 51 160 51C177.7 51 195.3 51 213.2 51C231 51 249 51 266.8 51C284.7 51 302.3 51 320 51C337.7 51 355.3 51 373.2 51C391 51 409 51 426.8 51C444.7 51 462.3 51 480 51C497.7 51 515.3 51 533.2 51C551 51 569 51 586.8 51C604.7 51 622.3 51 640 51C657.7 51 675.3 51 693.2 51C711 51 729 51 746.8 51C764.7 51 782.3 51 800 51C817.7 51 835.3 51 853.2 51C871 51 889 51 906.8 51C924.7 51 942.3 51 951.2 51L960 51L960 45L951.2 44.7C942.3 44.3 924.7 43.7 906.8 44.2C889 44.7 871 46.3 853.2 46.7C835.3 47 817.7 46 800 45.8C782.3 45.7 764.7 46.3 746.8 46.5C729 46.7 711 46.3 693.2 46C675.3 45.7 657.7 45.3 640 45.2C622.3 45 604.7 45 586.8 45C569 45 551 45 533.2 45.2C515.3 45.3 497.7 45.7 480 45.8C462.3 46 444.7 46 426.8 45.7C409 45.3 391 44.7 373.2 44.3C355.3 44 337.7 44 320 44C302.3 44 284.7 44 266.8 44.2C249 44.3 231 44.7 213.2 45C195.3 45.3 177.7 45.7 160 45.5C142.3 45.3 124.7 44.7 106.8 44.3C89 44 71 44 53.2 44.5C35.3 45 17.7 46 8.8 46.5L0 47Z" fill="#502e5b"></path></svg>